<?xml version="1.0" standalone="no"?>
<!DOCTYPE svg PUBLIC "-//W3C//DTD SVG 1.0//EN" "http://www.w3.org/TR/2001/REC-SVG-20010904/DTD/svg10.dtd">
<svg xmlns="http://www.w3.org/2000/svg" xmlns:xlink="http://www.w3.org/1999/xlink" id="body_1" width="48" height="48">

<g transform="matrix(1 0 0 1 0 0)">
	<g>
        <path d="M48 24C 48 30.627417 45.656853 36.28427 40.970562 40.970562C 36.28427 45.656853 30.627417 48 24 48C 17.372583 48 11.71573 45.656853 7.029438 40.970562C 2.343146 36.28427 0 30.627417 0 24C 0 17.372583 2.343146 11.71573 7.029438 7.029438C 11.71573 2.343146 17.372583 0 24 0C 30.627417 0 36.28427 2.343146 40.970562 7.029438C 45.656853 11.71573 48 17.372583 48 24C 48 24.279282 47.99513 24.558477 47.985382 24.837587" stroke="none" fill="#FFFFFF" fill-rule="nonzero" />
        <path d="M24 0C 24 16 16 24 0 24C 15.718 24.114 23.718 32.114 24 48C 24 32 32 24 48 24C 32 24 24 16 24 0z" stroke="none" fill="#0B0D17" fill-rule="nonzero" />
	</g>
</g>
</svg>